<?xml version="1.0" encoding="iso-8859-1"?>
<!-- Generator: Adobe Illustrator 19.0.0, SVG Export Plug-In . SVG Version: 6.00 Build 0)  -->
<svg xmlns="http://www.w3.org/2000/svg" xmlns:xlink="http://www.w3.org/1999/xlink" version="1.1" id="Capa_1" x="0px" y="0px" viewBox="0 0 490 490" style="enable-background:new 0 0 490 490;" xml:space="preserve" width="512px" height="512px">
<g>
	<path d="M161.484,372.699c13.099,0,21.563-1.525,25.391-4.606c3.828-3.081,5.742-9.854,5.742-20.352v-2.587h-14.355l0.12,3.365   c0,5.009-1.062,8.239-3.185,9.72c-2.108,1.465-6.729,2.213-13.832,2.213c-8.763,0-13.937-1.331-15.537-3.978   c-1.6-2.662-2.408-11.2-2.408-25.63c0-10.707,0.897-17.152,2.677-19.32c1.794-2.168,7.118-3.26,15.985-3.26   c6.624,0,10.871,0.688,12.726,2.064c1.869,1.391,2.796,4.546,2.796,9.48v1.929h14.355l-0.06-1.705c0-9.585-1.794-15.97-5.413-19.2   c-3.604-3.215-10.781-4.83-21.533-4.83c-14.759,0-24.449,1.959-29.1,5.877c-4.636,3.933-6.954,12.112-6.954,24.554   c0,21.129,1.72,34.124,5.129,38.984C137.454,370.276,146.605,372.699,161.484,372.699z" fill="#062c59"/>
	<path d="M230.346,361.215c-8.21,0-13.234-0.583-15.088-1.764c-1.839-1.181-2.751-4.396-2.751-9.66l-0.06-1.6h-13.907l0.045,2.751   c0,8.763,1.944,14.58,5.832,17.451c3.888,2.871,11.754,4.307,23.597,4.307c13.189,0,21.713-1.466,25.571-4.381   c3.873-2.931,5.802-9.406,5.802-19.41c0-8.135-1.645-13.488-4.95-16.075c-3.29-2.572-10.557-4.172-21.772-4.8   c-9.496-0.508-15.103-1.256-16.793-2.213c-1.69-0.957-2.542-3.813-2.542-8.553c0-4.008,1.047-6.639,3.125-7.896   c2.079-1.256,6.505-1.884,13.279-1.884c5.742,0,9.391,0.553,10.931,1.63c1.54,1.092,2.482,3.753,2.811,7.985   c0,0.329,0.045,0.837,0.12,1.54h13.967v-2.871c0-7.806-1.974-13.04-5.907-15.731c-3.948-2.692-11.574-4.038-22.924-4.038   c-11.963,0-19.933,1.465-23.926,4.396c-3.993,2.916-5.996,8.793-5.996,17.585c0,8.613,1.66,14.221,4.965,16.838   c3.32,2.617,10.946,4.277,22.864,4.965l7.895,0.508c4.456,0.254,7.357,0.987,8.703,2.183c1.346,1.196,2.019,3.604,2.019,7.253   c0,4.935-0.897,8.09-2.662,9.451C240.828,360.542,236.746,361.215,230.346,361.215z" fill="#062c59"/>
	<path d="M298.026,361.215c-8.195,0-13.219-0.583-15.073-1.764c-1.839-1.181-2.751-4.396-2.751-9.66l-0.06-1.6h-13.907l0.045,2.751   c0,8.763,1.944,14.58,5.832,17.451c3.888,2.871,11.754,4.307,23.597,4.307c13.174,0,21.698-1.466,25.571-4.381   c3.858-2.931,5.802-9.406,5.802-19.41c0-8.135-1.66-13.488-4.95-16.075c-3.29-2.572-10.557-4.172-21.787-4.8   c-9.481-0.508-15.088-1.256-16.778-2.213c-1.69-0.957-2.542-3.813-2.542-8.553c0-4.008,1.047-6.639,3.125-7.896   c2.079-1.256,6.505-1.884,13.279-1.884c5.742,0,9.376,0.553,10.931,1.63c1.54,1.092,2.482,3.753,2.811,7.985   c0,0.329,0.045,0.837,0.12,1.54h13.967v-2.871c0-7.806-1.974-13.04-5.907-15.731c-3.948-2.692-11.589-4.038-22.924-4.038   c-11.963,0-19.933,1.465-23.926,4.396c-3.993,2.916-5.996,8.793-5.996,17.585c0,8.613,1.66,14.221,4.965,16.838   c3.32,2.617,10.946,4.277,22.864,4.965l7.896,0.508c4.456,0.254,7.357,0.987,8.703,2.183c1.331,1.196,2.004,3.604,2.004,7.253   c0,4.935-0.882,8.09-2.647,9.451C308.523,360.542,304.441,361.215,298.026,361.215z" fill="#062c59"/>
	<path d="M77.788,0v265.111H42.189v139.614h0.001l35.59,35.591L77.788,490h370.023V102.422L345.388,0H77.788z M395.793,389.413   H57.501V280.423h338.292V389.413z M353.022,36.962l57.816,57.804h-57.816V36.962z" fill="#062c59"/>
</g>
<g>
</g>
<g>
</g>
<g>
</g>
<g>
</g>
<g>
</g>
<g>
</g>
<g>
</g>
<g>
</g>
<g>
</g>
<g>
</g>
<g>
</g>
<g>
</g>
<g>
</g>
<g>
</g>
<g>
</g>
</svg>
