<?xml version="1.0" encoding="iso-8859-1"?>
<!-- Generator: Adobe Illustrator 19.0.0, SVG Export Plug-In . SVG Version: 6.00 Build 0)  -->
<svg xmlns="http://www.w3.org/2000/svg" xmlns:xlink="http://www.w3.org/1999/xlink" version="1.1" id="Capa_1" x="0px" y="0px" viewBox="0 0 490 490" style="enable-background:new 0 0 490 490;" xml:space="preserve" width="512px" height="512px">
<g>
	<polygon points="189.108,360.003 151.515,360.003 151.515,338.694 186.85,338.694 186.85,328.137 151.515,328.137 151.515,308.712    188.779,308.712 188.779,296.675 137.204,296.675 137.204,372.041 189.108,372.041  " fill="#1c37ff"/>
	<path d="M210.043,372.041l10.871-18.109c2.438-4.008,4.606-7.821,6.52-11.439l1.6-2.976h0.224l1.6,2.931l1.54,2.976   c1.51,2.871,3.095,5.712,4.755,8.509l10.827,18.109h16.778l-24.135-38.879l22.64-36.487h-16.898l-10.049,16.838   c-1.764,2.946-3.23,5.563-4.411,7.836l-1.376,2.602c-0.299,0.583-0.763,1.465-1.391,2.647h-0.209l-1.391-2.647l-1.376-2.662   c-1.406-2.572-2.886-5.189-4.471-7.836l-10.049-16.778h-17.062l22.969,36.487l-24.733,38.879H210.043z" fill="#1c37ff"/>
	<polygon points="321.418,360.003 283.81,360.003 283.81,338.694 319.145,338.694 319.145,328.137 283.81,328.137 283.81,308.712    321.089,308.712 321.089,296.675 269.514,296.675 269.514,372.041 321.418,372.041  " fill="#1c37ff"/>
	<path d="M77.788,0v265.111H42.189v139.615h0.001l35.59,35.591L77.788,490h370.023V102.422L345.388,0H77.788z M395.793,389.413   H57.501v-108.99h338.292V389.413z M353.022,36.962l57.816,57.804h-57.816V36.962z" fill="#1c37ff"/>
</g>
<g>
</g>
<g>
</g>
<g>
</g>
<g>
</g>
<g>
</g>
<g>
</g>
<g>
</g>
<g>
</g>
<g>
</g>
<g>
</g>
<g>
</g>
<g>
</g>
<g>
</g>
<g>
</g>
<g>
</g>
</svg>
