<?xml version="1.0" encoding="iso-8859-1"?>
<!-- Generator: Adobe Illustrator 19.0.0, SVG Export Plug-In . SVG Version: 6.00 Build 0)  -->
<svg xmlns="http://www.w3.org/2000/svg" xmlns:xlink="http://www.w3.org/1999/xlink" version="1.1" id="Capa_1" x="0px" y="0px" viewBox="0 0 490 490" style="enable-background:new 0 0 490 490;" xml:space="preserve" width="512px" height="512px">
<g>
	<polygon points="131.951,327.419 96.608,327.419 96.608,296.675 82.305,296.675 82.305,372.041 96.608,372.041 96.608,339.457    131.951,339.457 131.951,372.041 146.246,372.041 146.246,296.675 131.951,296.675  " fill="#f2960c"/>
	<polygon points="153.484,309.475 175.241,309.475 175.241,372.041 189.544,372.041 189.544,309.475 212.072,309.475    212.072,296.675 153.484,296.675  " fill="#f2960c"/>
	<path d="M270.376,331.681c-0.987,2.542-2.153,5.996-3.529,10.378l-1.645,5.189l-1.615,5.189h-0.508l-1.705-5.189l-1.645-5.249   c-1.525-4.531-2.721-8-3.649-10.438l-13.473-34.887h-23.305v75.366h14.303v-41.078c0-3.065-0.112-6.729-0.329-10.991L233,314.455   l-0.277-5.473h0.441l1.712,5.189l1.712,5.249c1.51,4.636,2.722,8.12,3.641,10.438l16.748,42.184h13.01l16.569-42.513   c0.837-2.243,2.034-5.727,3.589-10.438l1.675-5.249l1.705-5.249h0.449l-0.299,5.578l-0.269,5.638   c-0.179,4.157-0.269,7.881-0.269,11.155v41.078h14.296v-75.366h-23.806L270.376,331.681z" fill="#f2960c"/>
	<polygon points="334.991,296.675 320.68,296.675 320.68,372.041 370.326,372.041 370.326,359.226 334.991,359.226  " fill="#f2960c"/>
	<path d="M77.788,0v265.111H42.189v139.615h0.001l35.59,35.591L77.788,490h370.023V102.422L345.388,0H77.788z M395.793,389.413   H57.501v-108.99h338.292V389.413z M353.022,36.962l57.816,57.804h-57.816V36.962z" fill="#f2960c"/>
</g>
<g>
</g>
<g>
</g>
<g>
</g>
<g>
</g>
<g>
</g>
<g>
</g>
<g>
</g>
<g>
</g>
<g>
</g>
<g>
</g>
<g>
</g>
<g>
</g>
<g>
</g>
<g>
</g>
<g>
</g>
</svg>
